<svg width="118" height="41" viewBox="0 0 118 41" fill="none" xmlns="http://www.w3.org/2000/svg">
<path d="M16.5 35C12.1239 35 7.92709 33.2616 4.83274 30.1673C1.73839 27.0729 -1.21734e-07 22.8761 0 18.5C1.21734e-07 14.1239 1.73839 9.92709 4.83274 6.83274C7.92709 3.73839 12.1239 2 16.5 2V10.1179C14.2769 10.1179 12.1449 11.001 10.573 12.573C9.001 14.1449 8.11789 16.2769 8.11789 18.5C8.11789 20.7231 9.001 22.8551 10.573 24.427C12.1449 25.999 14.2769 26.8821 16.5 26.8821V35Z" fill="#228BE6"/>
<g style="mix-blend-mode:difference">
<path d="M30.8 3V5.44H26.52V17H24.08V5.44H19.8V3H30.8ZM31.9188 7H34.3588V17H31.9188V7ZM33.1588 5.71C32.7988 5.71 32.4954 5.59333 32.2488 5.36C32.0021 5.12 31.8788 4.82 31.8788 4.46C31.8788 4.10667 32.0021 3.81 32.2488 3.57C32.4954 3.33 32.7954 3.21 33.1488 3.21C33.5021 3.21 33.7988 3.33 34.0388 3.57C34.2854 3.81 34.4088 4.10667 34.4088 4.46C34.4088 4.82 34.2888 5.12 34.0488 5.36C33.8088 5.59333 33.5121 5.71 33.1588 5.71ZM36.6844 17V7H39.1244V7.89C39.4644 7.53 39.871 7.24667 40.3444 7.04C40.8177 6.82667 41.3277 6.72 41.8744 6.72C42.5677 6.72 43.2044 6.88333 43.7844 7.21C44.371 7.53667 44.8377 7.97333 45.1844 8.52C45.5377 7.97333 46.0044 7.53667 46.5844 7.21C47.1644 6.88333 47.801 6.72 48.4944 6.72C49.2277 6.72 49.891 6.9 50.4844 7.26C51.0844 7.61333 51.561 8.09 51.9144 8.69C52.2744 9.28333 52.4544 9.94667 52.4544 10.68V17H50.0144V11.33C50.0144 10.9433 49.9177 10.59 49.7244 10.27C49.5377 9.94333 49.2844 9.68333 48.9644 9.49C48.651 9.29 48.2977 9.19 47.9044 9.19C47.511 9.19 47.1544 9.28667 46.8344 9.48C46.521 9.66667 46.2677 9.92 46.0744 10.24C45.881 10.56 45.7844 10.9233 45.7844 11.33V17H43.3444V11.33C43.3444 10.9233 43.251 10.56 43.0644 10.24C42.8777 9.92 42.6244 9.66667 42.3044 9.48C41.9844 9.28667 41.6277 9.19 41.2344 9.19C40.8477 9.19 40.4944 9.29 40.1744 9.49C39.8544 9.68333 39.5977 9.94333 39.4044 10.27C39.2177 10.59 39.1244 10.9433 39.1244 11.33V17H36.6844ZM54.4578 7H56.8978V17H54.4578V7ZM55.6978 5.71C55.3378 5.71 55.0345 5.59333 54.7878 5.36C54.5411 5.12 54.4178 4.82 54.4178 4.46C54.4178 4.10667 54.5411 3.81 54.7878 3.57C55.0345 3.33 55.3345 3.21 55.6878 3.21C56.0411 3.21 56.3378 3.33 56.5778 3.57C56.8245 3.81 56.9478 4.10667 56.9478 4.46C56.9478 4.82 56.8278 5.12 56.5878 5.36C56.3478 5.59333 56.0511 5.71 55.6978 5.71ZM59.3406 17V2H61.7806V17H59.3406ZM68.4281 17.26C67.5081 17.26 66.6681 17.0233 65.9081 16.55C65.1548 16.0767 64.5515 15.44 64.0981 14.64C63.6515 13.84 63.4281 12.9567 63.4281 11.99C63.4281 11.2633 63.5581 10.5833 63.8181 9.95C64.0781 9.31 64.4348 8.75 64.8881 8.27C65.3481 7.78333 65.8815 7.40333 66.4881 7.13C67.0948 6.85667 67.7415 6.72 68.4281 6.72C69.2081 6.72 69.9215 6.88667 70.5681 7.22C71.2215 7.54667 71.7748 7.99667 72.2281 8.57C72.6815 9.14333 73.0115 9.79667 73.2181 10.53C73.4248 11.2633 73.4715 12.03 73.3581 12.83H66.0481C66.1415 13.2033 66.2948 13.54 66.5081 13.84C66.7215 14.1333 66.9915 14.37 67.3181 14.55C67.6448 14.7233 68.0148 14.8133 68.4281 14.82C68.8548 14.8267 69.2415 14.7267 69.5881 14.52C69.9415 14.3067 70.2348 14.02 70.4681 13.66L72.9581 14.24C72.5515 15.1267 71.9448 15.8533 71.1381 16.42C70.3315 16.98 69.4281 17.26 68.4281 17.26ZM65.9681 11H70.8881C70.8148 10.6 70.6581 10.24 70.4181 9.92C70.1848 9.59333 69.8948 9.33333 69.5481 9.14C69.2015 8.94667 68.8281 8.85 68.4281 8.85C68.0281 8.85 67.6581 8.94667 67.3181 9.14C66.9781 9.32667 66.6881 9.58333 66.4481 9.91C66.2148 10.23 66.0548 10.5933 65.9681 11ZM83.9889 10.68V17H81.5489V11.32C81.5489 10.9267 81.4522 10.57 81.2589 10.25C81.0656 9.92333 80.8056 9.66667 80.4789 9.48C80.1589 9.28667 79.8022 9.19 79.4089 9.19C79.0156 9.19 78.6556 9.28667 78.3289 9.48C78.0089 9.66667 77.7522 9.92333 77.5589 10.25C77.3722 10.57 77.2789 10.9267 77.2789 11.32V17H74.8389L74.8289 2H77.2689L77.2789 7.89C77.6189 7.53 78.0256 7.24667 78.4989 7.04C78.9722 6.82667 79.4822 6.72 80.0289 6.72C80.7556 6.72 81.4189 6.9 82.0189 7.26C82.6189 7.61333 83.0956 8.09 83.4489 8.69C83.8089 9.28333 83.9889 9.94667 83.9889 10.68ZM85.9813 7H88.4213V17H85.9813V7ZM87.2213 5.71C86.8613 5.71 86.5579 5.59333 86.3113 5.36C86.0646 5.12 85.9413 4.82 85.9413 4.46C85.9413 4.10667 86.0646 3.81 86.3113 3.57C86.5579 3.33 86.8579 3.21 87.2113 3.21C87.5646 3.21 87.8613 3.33 88.1013 3.57C88.3479 3.81 88.4713 4.10667 88.4713 4.46C88.4713 4.82 88.3513 5.12 88.1113 5.36C87.8713 5.59333 87.5746 5.71 87.2213 5.71ZM99.9069 10.68V17H97.4669V11.32C97.4669 10.9267 97.3702 10.57 97.1769 10.25C96.9835 9.92333 96.7235 9.66667 96.3969 9.48C96.0769 9.28667 95.7202 9.19 95.3269 9.19C94.9335 9.19 94.5735 9.28667 94.2469 9.48C93.9269 9.66667 93.6702 9.92333 93.4769 10.25C93.2902 10.57 93.1969 10.9267 93.1969 11.32V17H90.7569L90.7469 7H93.1869L93.1969 7.89C93.5369 7.53 93.9435 7.24667 94.4169 7.04C94.8902 6.82667 95.4002 6.72 95.9469 6.72C96.6735 6.72 97.3369 6.9 97.9369 7.26C98.5369 7.61333 99.0135 8.09 99.3669 8.69C99.7269 9.28333 99.9069 9.94667 99.9069 10.68ZM24.88 22H27.69L32.78 36H30.19L29.29 33.52H23.29L22.39 36H19.8L24.88 22ZM24.18 31.08H28.39L26.28 25.31L24.18 31.08ZM39.7778 25.72C40.7511 25.72 41.6378 25.9567 42.4378 26.43C43.2378 26.9033 43.8745 27.54 44.3478 28.34C44.8211 29.1333 45.0578 30.0133 45.0578 30.98C45.0578 31.7067 44.9211 32.39 44.6478 33.03C44.3745 33.67 43.9945 34.2333 43.5078 34.72C43.0278 35.2 42.4678 35.5767 41.8278 35.85C41.1945 36.1233 40.5111 36.26 39.7778 36.26C39.1511 36.26 38.5945 36.12 38.1078 35.84C37.6278 35.5533 37.2245 35.1833 36.8978 34.73V36H34.4578V21H36.8978V27.25C37.2245 26.7967 37.6278 26.43 38.1078 26.15C38.5945 25.8633 39.1511 25.72 39.7778 25.72ZM39.7478 33.9C40.2678 33.9 40.7378 33.77 41.1578 33.51C41.5845 33.2433 41.9245 32.89 42.1778 32.45C42.4311 32.01 42.5578 31.52 42.5578 30.98C42.5578 30.4467 42.4311 29.96 42.1778 29.52C41.9245 29.0733 41.5845 28.72 41.1578 28.46C40.7311 28.2 40.2611 28.07 39.7478 28.07C39.2411 28.07 38.7878 28.2033 38.3878 28.47C37.9878 28.73 37.6745 29.0833 37.4478 29.53C37.2211 29.97 37.1078 30.4533 37.1078 30.98C37.1078 31.52 37.2211 32.0133 37.4478 32.46C37.6745 32.9 37.9878 33.25 38.3878 33.51C38.7878 33.77 39.2411 33.9 39.7478 33.9ZM51.0648 36.26C50.1448 36.26 49.3048 36.0233 48.5448 35.55C47.7915 35.0767 47.1882 34.44 46.7348 33.64C46.2882 32.84 46.0648 31.9567 46.0648 30.99C46.0648 30.2633 46.1948 29.5833 46.4548 28.95C46.7148 28.31 47.0715 27.75 47.5248 27.27C47.9848 26.7833 48.5182 26.4033 49.1248 26.13C49.7315 25.8567 50.3782 25.72 51.0648 25.72C51.8448 25.72 52.5582 25.8867 53.2048 26.22C53.8582 26.5467 54.4115 26.9967 54.8648 27.57C55.3182 28.1433 55.6482 28.7967 55.8548 29.53C56.0615 30.2633 56.1082 31.03 55.9948 31.83H48.6848C48.7782 32.2033 48.9315 32.54 49.1448 32.84C49.3582 33.1333 49.6282 33.37 49.9548 33.55C50.2815 33.7233 50.6515 33.8133 51.0648 33.82C51.4915 33.8267 51.8782 33.7267 52.2248 33.52C52.5782 33.3067 52.8715 33.02 53.1048 32.66L55.5948 33.24C55.1882 34.1267 54.5815 34.8533 53.7748 35.42C52.9682 35.98 52.0648 36.26 51.0648 36.26ZM48.6048 30H53.5248C53.4515 29.6 53.2948 29.24 53.0548 28.92C52.8215 28.5933 52.5315 28.3333 52.1848 28.14C51.8382 27.9467 51.4648 27.85 51.0648 27.85C50.6648 27.85 50.2948 27.9467 49.9548 28.14C49.6148 28.3267 49.3248 28.5833 49.0848 28.91C48.8515 29.23 48.6915 29.5933 48.6048 30ZM65.0809 26H67.5209V36.19C67.5209 36.91 67.3743 37.5633 67.0809 38.15C66.7876 38.7433 66.3876 39.25 65.8809 39.67C65.3743 40.0967 64.7943 40.4233 64.1409 40.65C63.4876 40.8833 62.8009 41 62.0809 41C61.3809 41 60.7076 40.8567 60.0609 40.57C59.4143 40.2833 58.8409 39.89 58.3409 39.39C57.8476 38.8967 57.4709 38.3333 57.2109 37.7L59.4409 36.69C59.5743 37.0567 59.7743 37.3767 60.0409 37.65C60.3143 37.93 60.6276 38.1467 60.9809 38.3C61.3343 38.46 61.7009 38.54 62.0809 38.54C62.4676 38.54 62.8376 38.4867 63.1909 38.38C63.5509 38.2733 63.8743 38.1167 64.1609 37.91C64.4476 37.71 64.6709 37.4633 64.8309 37.17C64.9976 36.8833 65.0809 36.5567 65.0809 36.19V34.78C64.7676 35.22 64.3743 35.5767 63.9009 35.85C63.4276 36.1233 62.8809 36.26 62.2609 36.26C61.5409 36.26 60.8676 36.1233 60.2409 35.85C59.6143 35.5767 59.0609 35.2 58.5809 34.72C58.1076 34.2333 57.7343 33.6733 57.4609 33.04C57.1943 32.4067 57.0609 31.7267 57.0609 31C57.0609 30.2733 57.1943 29.5933 57.4609 28.96C57.7343 28.3267 58.1076 27.77 58.5809 27.29C59.0609 26.8033 59.6143 26.4233 60.2409 26.15C60.8676 25.8767 61.5409 25.74 62.2609 25.74C62.8809 25.74 63.4276 25.8767 63.9009 26.15C64.3743 26.4167 64.7676 26.77 65.0809 27.21V26ZM62.2909 33.91C62.8043 33.91 63.2576 33.78 63.6509 33.52C64.0509 33.2533 64.3643 32.9 64.5909 32.46C64.8176 32.0133 64.9309 31.5267 64.9309 31C64.9309 30.4667 64.8143 29.98 64.5809 29.54C64.3543 29.1 64.0409 28.7467 63.6409 28.48C63.2476 28.2133 62.7976 28.08 62.2909 28.08C61.7909 28.08 61.3343 28.2133 60.9209 28.48C60.5076 28.74 60.1776 29.09 59.9309 29.53C59.6843 29.97 59.5609 30.46 59.5609 31C59.5609 31.54 59.6843 32.03 59.9309 32.47C60.1776 32.91 60.5076 33.26 60.9209 33.52C61.3343 33.78 61.7909 33.91 62.2909 33.91ZM69.2141 32.3V26H71.6541V31.66C71.6541 32.0533 71.7507 32.4133 71.9441 32.74C72.1374 33.06 72.3941 33.3167 72.7141 33.51C73.0407 33.6967 73.3974 33.79 73.7841 33.79C74.1841 33.79 74.5441 33.6967 74.8641 33.51C75.1841 33.3167 75.4407 33.06 75.6341 32.74C75.8274 32.4133 75.9241 32.0533 75.9241 31.66V26H78.3641L78.3741 36H75.9341L75.9241 35.09C75.5774 35.45 75.1674 35.7367 74.6941 35.95C74.2207 36.1567 73.7141 36.26 73.1741 36.26C72.4474 36.26 71.7841 36.0833 71.1841 35.73C70.5841 35.37 70.1041 34.8933 69.7441 34.3C69.3907 33.7 69.2141 33.0333 69.2141 32.3ZM89.5358 29.68V36H87.0958V30.32C87.0958 29.9267 86.9991 29.57 86.8058 29.25C86.6124 28.9233 86.3524 28.6667 86.0258 28.48C85.7058 28.2867 85.3491 28.19 84.9558 28.19C84.5624 28.19 84.2024 28.2867 83.8758 28.48C83.5558 28.6667 83.2991 28.9233 83.1058 29.25C82.9191 29.57 82.8258 29.9267 82.8258 30.32V36H80.3858L80.3758 26H82.8158L82.8258 26.89C83.1658 26.53 83.5724 26.2467 84.0458 26.04C84.5191 25.8267 85.0291 25.72 85.5758 25.72C86.3024 25.72 86.9658 25.9 87.5658 26.26C88.1658 26.6133 88.6424 27.09 88.9958 27.69C89.3558 28.2833 89.5358 28.9467 89.5358 29.68ZM98.8928 21H101.333V36H98.8928V34.75C98.5728 35.1967 98.1695 35.56 97.6828 35.84C97.1961 36.12 96.6328 36.26 95.9928 36.26C95.2661 36.26 94.5861 36.1233 93.9528 35.85C93.3195 35.5767 92.7595 35.2 92.2728 34.72C91.7928 34.2333 91.4161 33.6733 91.1428 33.04C90.8695 32.4067 90.7328 31.7267 90.7328 31C90.7328 30.2733 90.8695 29.5933 91.1428 28.96C91.4161 28.3267 91.7928 27.77 92.2728 27.29C92.7595 26.8033 93.3195 26.4233 93.9528 26.15C94.5861 25.8767 95.2661 25.74 95.9928 25.74C96.6328 25.74 97.1961 25.88 97.6828 26.16C98.1695 26.4333 98.5728 26.7967 98.8928 27.25V21ZM96.0228 33.91C96.5428 33.91 97.0028 33.78 97.4028 33.52C97.8028 33.26 98.1161 32.91 98.3428 32.47C98.5695 32.0233 98.6828 31.5333 98.6828 31C98.6828 30.46 98.5695 29.97 98.3428 29.53C98.1161 29.0833 97.7995 28.73 97.3928 28.47C96.9928 28.21 96.5361 28.08 96.0228 28.08C95.5095 28.08 95.0395 28.2133 94.6128 28.48C94.1928 28.74 93.8561 29.09 93.6028 29.53C93.3561 29.97 93.2328 30.46 93.2328 31C93.2328 31.54 93.3595 32.03 93.6128 32.47C93.8661 32.91 94.2028 33.26 94.6228 33.52C95.0495 33.78 95.5161 33.91 96.0228 33.91ZM107.979 36.26C107.059 36.26 106.219 36.0233 105.459 35.55C104.706 35.0767 104.102 34.44 103.649 33.64C103.202 32.84 102.979 31.9567 102.979 30.99C102.979 30.2633 103.109 29.5833 103.369 28.95C103.629 28.31 103.986 27.75 104.439 27.27C104.899 26.7833 105.432 26.4033 106.039 26.13C106.646 25.8567 107.292 25.72 107.979 25.72C108.759 25.72 109.472 25.8867 110.119 26.22C110.772 26.5467 111.326 26.9967 111.779 27.57C112.232 28.1433 112.562 28.7967 112.769 29.53C112.976 30.2633 113.022 31.03 112.909 31.83H105.599C105.692 32.2033 105.846 32.54 106.059 32.84C106.272 33.1333 106.542 33.37 106.869 33.55C107.196 33.7233 107.566 33.8133 107.979 33.82C108.406 33.8267 108.792 33.7267 109.139 33.52C109.492 33.3067 109.786 33.02 110.019 32.66L112.509 33.24C112.102 34.1267 111.496 34.8533 110.689 35.42C109.882 35.98 108.979 36.26 107.979 36.26ZM105.519 30H110.439C110.366 29.6 110.209 29.24 109.969 28.92C109.736 28.5933 109.446 28.3333 109.099 28.14C108.752 27.9467 108.379 27.85 107.979 27.85C107.579 27.85 107.209 27.9467 106.869 28.14C106.529 28.3267 106.239 28.5833 105.999 28.91C105.766 29.23 105.606 29.5933 105.519 30Z" fill="white"/>
<path d="M115.425 36.26C115.078 36.26 114.782 36.14 114.535 35.9C114.295 35.6533 114.175 35.3533 114.175 35C114.175 34.66 114.295 34.3667 114.535 34.12C114.782 33.8733 115.078 33.75 115.425 33.75C115.772 33.75 116.068 33.8733 116.315 34.12C116.562 34.3667 116.685 34.66 116.685 35C116.685 35.3533 116.562 35.6533 116.315 35.9C116.068 36.14 115.772 36.26 115.425 36.26Z" fill="#339AF0"/>
</g>
</svg>
